<svg id="Capa_1" enable-background="new 0 0 512 512" height="512" viewBox="0 0 512 512" width="512" xmlns="http://www.w3.org/2000/svg"><g><path d="m512 349.659h-512v-260.268c0-5.69 4.612-10.302 10.302-10.302h491.396c5.69 0 10.302 4.612 10.302 10.302z" fill="#90dfc3"/><path d="m0 349.659h512v41.626h-512z" fill="#78d0b1"/><path d="m0 349.659h512v20.813h-512z" fill="#66b49d"/><path d="m501.698 432.911h-491.396c-5.69 0-10.302-4.613-10.302-10.302v-31.324h512v31.324c0 5.689-4.612 10.302-10.302 10.302z" fill="#78d0b1"/><path d="m0 391.285h512v20.813h-512z" fill="#66b49d"/><path d="m501.698 79.089h-12.592v270.569h22.894v-260.267c0-5.689-4.612-10.302-10.302-10.302z" fill="#78d0b1"/><path d="m328.846 214.374c0 34.026-9.448 64.585-24.445 85.552-4.919 6.877.02 16.432 8.475 16.432h124.198c5.747 0 10.406-4.659 10.406-10.407v-10.407c0-5.747 4.659-10.406 10.406-10.406h10.407c5.747 0 10.406-4.659 10.406-10.407v-60.358-60.358c0-5.747-4.659-10.407-10.406-10.407h-10.407c-5.747 0-10.406-4.659-10.406-10.407v-10.407c0-5.747-4.659-10.407-10.406-10.407h-124.199c-8.456 0-13.394 9.555-8.475 16.432 14.998 20.97 24.446 51.529 24.446 85.555z" fill="#b9f6d3"/><path d="m183.154 214.374c0 34.026 9.448 64.585 24.445 85.552 4.919 6.877-.02 16.432-8.475 16.432h-124.197c-5.747 0-10.407-4.659-10.407-10.407v-10.407c0-5.747-4.659-10.406-10.407-10.406h-10.406c-5.747 0-10.407-4.659-10.407-10.407v-60.358-60.358c0-5.747 4.659-10.407 10.407-10.407h10.407c5.747 0 10.407-4.659 10.407-10.407v-10.407c0-5.747 4.659-10.407 10.407-10.407h124.198c8.456 0 13.394 9.555 8.475 16.432-14.999 20.97-24.447 51.529-24.447 85.555z" fill="#b9f6d3"/><path d="m268.624 206.53c-1.889-.668-3.73-1.326-5.514-1.98v-30.895c4.248 1.269 6.785 3.397 7.04 3.617 3.142 2.836 7.989 2.615 10.86-.508 2.889-3.14 2.685-8.028-.455-10.917-.395-.363-6.876-6.18-17.444-8.033v-5.879c0-4.267-3.459-7.726-7.726-7.726s-7.726 3.459-7.726 7.726v6.377c-.869.203-1.746.426-2.64.695-10.361 3.121-18.163 11.409-20.363 21.631-2.078 9.656 1.208 19.364 8.791 25.968 3.783 3.295 8.575 5.96 14.213 8.436v39.632c-4.899-.472-8.223-1.834-13.716-5.428-3.571-2.336-8.36-1.335-10.695 2.236-2.336 3.571-1.335 8.359 2.236 10.695 8.658 5.663 14.659 7.475 22.175 7.989v6.646c0 4.267 3.459 7.726 7.726 7.726s7.726-3.459 7.726-7.726v-7.34c14.838-3.346 24.365-15.832 26.436-28.149 2.639-15.709-5.573-29.367-20.924-34.793zm-25.03-11.576c-4.553-3.966-4.356-8.635-3.833-11.064.889-4.129 3.844-7.601 7.897-9.411v23.31c-1.565-.915-2.938-1.855-4.064-2.835zm30.713 43.809c-.959 5.705-4.764 11.74-11.197 14.536v-32.329c.122.043.241.086.364.129 12.089 4.273 11.348 14.6 10.833 17.664z" fill="#66b49d"/><g><path d="m417.821 222.1h-41.626c-4.267 0-7.726-3.459-7.726-7.726s3.459-7.726 7.726-7.726h41.626c4.267 0 7.726 3.459 7.726 7.726s-3.459 7.726-7.726 7.726z" fill="#78d0b1"/></g><g><path d="m386.081 188.799h-20.813c-4.267 0-7.726-3.459-7.726-7.726s3.459-7.726 7.726-7.726h20.813c4.267 0 7.726 3.459 7.726 7.726s-3.459 7.726-7.726 7.726z" fill="#78d0b1"/></g><g><path d="m386.081 255.401h-20.813c-4.267 0-7.726-3.459-7.726-7.726s3.459-7.726 7.726-7.726h20.813c4.267 0 7.726 3.459 7.726 7.726s-3.459 7.726-7.726 7.726z" fill="#78d0b1"/></g><g><path d="m135.805 222.1h-41.626c-4.267 0-7.726-3.459-7.726-7.726s3.459-7.726 7.726-7.726h41.626c4.267 0 7.726 3.459 7.726 7.726s-3.459 7.726-7.726 7.726z" fill="#78d0b1"/></g><g><path d="m146.732 188.799h-20.813c-4.267 0-7.726-3.459-7.726-7.726s3.459-7.726 7.726-7.726h20.813c4.267 0 7.726 3.459 7.726 7.726s-3.459 7.726-7.726 7.726z" fill="#78d0b1"/></g><g><path d="m146.732 255.401h-20.813c-4.267 0-7.726-3.459-7.726-7.726s3.459-7.726 7.726-7.726h20.813c4.267 0 7.726 3.459 7.726 7.726s-3.459 7.726-7.726 7.726z" fill="#78d0b1"/></g></g></svg>